<?xml version="1.0" encoding="iso-8859-1"?>
<!-- Generator: Adobe Illustrator 20.1.0, SVG Export Plug-In . SVG Version: 6.00 Build 0)  -->
<svg version="1.1"  xmlns="http://www.w3.org/2000/svg" xmlns:xlink="http://www.w3.org/1999/xlink" x="0px" y="0px"
	 viewBox="0 0 48 48" style="enable-background:new 0 0 48 48;" xml:space="preserve">
<path style="fill:#37474F;" d="M40,42.998c0.187-8.405-11-10.999-11-10.999H19c0,0-11.009,2.344-11,10.999v1h32V42.998z"/>
<g>
	<path style="fill:#B0BEC5;" d="M9.467,38h29.07c-0.499-0.747-1.094-1.411-1.744-2H11.165C10.533,36.587,9.954,37.251,9.467,38z"/>
	<path style="fill:#B0BEC5;" d="M39.961,42c-0.063-0.711-0.207-1.378-0.422-2H8.486c-0.212,0.621-0.358,1.288-0.43,2H39.961z"/>
	<path style="fill:#B0BEC5;" d="M18.997,32c-0.028,0.006-2.482,0.535-5.066,2h20.045c-2.551-1.432-4.948-1.994-4.974-2H18.997z"/>
</g>
<path style="fill:#37474F;" d="M30.859,32.739l0.056-0.14C29.777,32.181,29,31.999,29,31.999H19c0,0-0.782,0.168-1.924,0.574
	l0.066,0.165C17.771,34.321,19.923,37,24,37S30.229,34.321,30.859,32.739z"/>
<path style="fill:#FF9800;" d="M19,32v-6h10v6c0,0-1.193,3-5,3S19,32,19,32z"/>
<path style="fill:#FFA726;" d="M35,20c0,1.105-0.895,2-2,2c-1.104,0-2-0.895-2-2s0.896-2,2-2C34.105,18,35,18.895,35,20 M17,20
	c0-1.105-0.895-2-2-2s-2,0.895-2,2s0.895,2,2,2S17,21.105,17,20"/>
<path style="fill:#FFB74D;" d="M33,14c0-7.635-18-4.971-18,0v7c0,4.971,4.029,9,9,9c4.972,0,9-4.029,9-9V14z"/>
<path style="fill:#FFFFFF;" d="M24,30L24,30c-3.866,0-7-3.134-7-7V12h14v11C31,26.866,27.866,30,24,30z"/>
<path style="fill:#795548;" d="M24,5c-6.075,0-10,4.926-10,11v2.286L16,20v-3.959c0,0,6.913-0.543,11.627-3.657
	C29.152,13.909,32,15,32,15v5l2-1.742V16c0-4.025-1.038-8.016-6-9l-1-2H24z"/>
<path style="fill:#2196F3;" d="M28,17c0,0,1.5,1.898,1.5,3S28,23,28,23s-1.5-1.766-1.5-3S28,17,28,17z M20,17c0,0,1.5,1.898,1.5,3
	S20,23,20,23s-1.5-1.766-1.5-3S20,17,20,17z"/>
<path style="fill:#37474F;" d="M27,20c0-0.551,0.448-1,1-1s1,0.449,1,1s-0.448,1-1,1S27,20.551,27,20 M19,20c0,0.551,0.448,1,1,1
	s1-0.449,1-1s-0.448-1-1-1S19,19.449,19,20"/>
<path style="fill:#F44336;" d="M24,27c-1.36,0-3-1-3-1s1.56-1,3-1s3,1,3,1S25.36,27,24,27z"/>
<path style="fill:#78909C;" d="M13.038,14.493l0.989,1.273l18.066-6.49l-0.314-1.393c0,0,1.431-1.2,1.221-1.883
	s-4.288-2.713-12.608-0.381C13.809,7.465,10.556,13.273,11,14S13.038,14.493,13.038,14.493z"/>
<path style="fill:#607D8B;" d="M13.038,14.493l0.989,1.273l18.066-6.49l-0.314-1.393c0,0,1.431-1.2,1.221-1.883
	s-3.096,2.994-11.416,5.326C15.001,13.171,10.556,13.273,11,14S13.038,14.493,13.038,14.493z"/>
<path style="fill:none;stroke:#78909C;stroke-linecap:round;stroke-miterlimit:10;" d="M18.5,4.5c0,0,1.523,0.048,1.964,1.403"/>
</svg>
