<?xml version="1.0" encoding="iso-8859-1"?>
<!-- Generator: Adobe Illustrator 19.1.1, SVG Export Plug-In . SVG Version: 6.00 Build 0)  -->
<svg version="1.1" id="Layer_1" xmlns="http://www.w3.org/2000/svg" xmlns:xlink="http://www.w3.org/1999/xlink" x="0px" y="0px"
	 viewBox="0 0 48 48" style="enable-background:new 0 0 48 48;" xml:space="preserve">
<path style="fill:#FF9800;" d="M24,39c-5,0-5-6-5-6v-6h10v6C29,33,29,39,24,39z"/>
<path style="fill:#FFA726;" d="M35,21c0,1.105-0.896,2-2,2c-1.106,0-2-0.895-2-2s0.894-2,2-2C34.104,19,35,19.895,35,21 M17,21
	c0-1.105-0.896-2-2-2c-1.106,0-2,0.895-2,2s0.894,2,2,2C16.104,23,17,22.105,17,21"/>
<path style="fill:#FFB74D;" d="M33,15c0-7.635-18-4.971-18,0v7c0,4.971,4.028,9,9,9c4.971,0,9-4.029,9-9V15z"/>
<path style="fill:#424242;" d="M22.916,7.582C16.841,7.582,14,10.926,14,17v2.286L16,21v-5l12-4l4,4v5l2-1.742V17
	c0-4.025-1.038-8.016-6-9l-2.084-0.418H22.916z"/>
<path style="fill:#784719;" d="M27,21c0-0.551,0.448-1,1-1s1,0.449,1,1s-0.448,1-1,1S27,21.551,27,21 M19,21c0,0.551,0.448,1,1,1
	s1-0.449,1-1s-0.448-1-1-1S19,20.449,19,21"/>
<path style="fill:#FBC02D;" d="M34,15.25c0,0-2.921-1-10-1c-7.08,0-10,1-10,1L13,5l6,3l5-5l5,5l6-3L34,15.25z"/>
<path style="fill:#ECEFF1;" d="M24,44c5.229,0,9.664-3.352,11.309-8.016C32.316,33.615,29,33,29,33s-1,4-5,4s-5-4-5-4
	s-3.32,0.604-6.314,2.973C14.328,40.645,18.767,44,24,44z"/>
<path style="fill:#F44336;" d="M35.309,35.984C33.664,40.648,29.229,44,24,44c-5.233,0-9.672-3.355-11.314-8.027
	C10.233,37.912,8,41.039,8,46h32C40,41.053,37.764,37.928,35.309,35.984z"/>
<path style="fill:#37474F;" d="M23,40c0-0.553,0.447-1,1-1c0.552,0,1,0.447,1,1s-1,2-1,2S23,40.553,23,40z M31,39c0,0,1-1.447,1-2
	s-0.448-1-1-1c-0.553,0-1,0.447-1,1S31,39,31,39z M17,39c0,0,1-1.447,1-2s-0.448-1-1-1c-0.553,0-1,0.447-1,1S17,39,17,39z"/>
<path style="fill:#FFFF8D;" d="M34.001,15.979c-11.149-2.33-19.859-0.037-19.945-0.014l-0.181-2.019
	c0.372-0.102,8.603-2.418,20.247,0.016L34.001,15.979z"/>
</svg>
